#!OML:ASF \\sashay\E\basketball\basketball\Project 1\Capture day 1\Session 1\Subject.ASF
:FULLY-SPECIFIED
:DEGREES
17
root -35.3113 15.8285 0.692519 -176.668 74.5934 178.714
lowerback 10.6777 1.87941 -4.11761
upperback 9.59128 2.82799 0.208793
thorax 3.89419 1.44602 2.33653
lowerneck 2.01345 -11.8132 -15.9648
upperneck -17.7252 -13.6712 25.4053
head -2.22983 -7.1564 10.7411
rclavicle -5.55106e-014 4.1136e-014
rhumerus -32.3521 35.2111 -109.425
rradius 76.968
rwrist -31.1368
rhand -20.8682 29.1938
rfingers 7.12502
rthumb 5.50158 -0.714745
lclavicle -5.55106e-014 4.1136e-014
lhumerus -31.6813 -15.3336 94.5905
lradius 83.647
lwrist 23.7309
lhand -16.1481 32.6184
lfingers 7.12502
lthumb 10.0573 62.3581
rfemur -14.7152 -4.58492 18.4868
rtibia 37.914
rfoot -25.3011 -25.3439
rtoes 3.31903
lfemur -20.339 -1.33842 -17.5191
ltibia 36.3335
lfoot -15.5278 0.602587
ltoes -18.5588
18
root -35.3165 15.8272 0.680244 -176.298 74.5046 178.964
lowerback 10.7771 1.92973 -4.13015
upperback 9.6386 2.89615 0.264707
thorax 3.88351 1.48016 2.39395
lowerneck 2.09911 -11.8579 -16.0718
upperneck -17.7998 -13.7334 25.534
head -2.22986 -7.19494 10.8065
rclavicle 4.76586e-014 -4.67392e-014
rhumerus -32.1832 35.6579 -109.707
rradius 76.4735
rwrist -32.9591
rhand -22.1313 30.9717
rfingers 7.12502
rthumb 4.28195 1.03501
lclavicle 4.76586e-014 -4.67392e-014
lhumerus -31.2857 -14.9813 94.5944
lradius 82.7865
lwrist 23.6393
lhand -16.1123 32.4021
lfingers 7.12502
lthumb 10.0918 62.1401
rfemur -14.8365 -4.94615 18.4947
rtibia 37.9611
rfoot -25.3898 -25.1004
rtoes 3.36431
lfemur -20.6229 -1.04673 -17.5174
ltibia 36.507
lfoot -15.5166 0.398053
ltoes -20.1866
19
root -35.3219 15.8267 0.668106 -176.21 74.3959 178.926
lowerback 10.9525 1.98939 -4.18889
upperback 9.65571 2.96826 0.293313
thorax 3.79861 1.51637 2.44398
lowerneck 2.24627 -11.896 -16.0599
upperneck -17.9375 -13.7928 25.495
head -2.28733 -7.23395 10.8063
rclavicle -2.68856e-014 1.21756e-014
rhumerus -31.861 35.8304 -109.823
rradius 75.8675
rwrist -33.8003
rhand -22.3995 30.7645
rfingers 7.12502
rthumb 4.02299 0.82269
lclavicle -2.68856e-014 1.21756e-014
lhumerus -30.9375 -14.5289 94.6154
lradius 82.0801
lwrist 23.6042
lhand -15.7064 32.7404
lfingers 7.12502
lthumb 10.4834 62.459
rfemur -14.9964 -5.40736 18.4186
rtibia 37.9975
rfoot -25.1998 -24.967
rtoes 2.81219
lfemur -20.913 -0.721191 -17.6047
ltibia 36.6953
lfoot -15.3486 -0.112939
ltoes -18.5381
20
root -35.3265 15.8211 0.65524 -176.474 74.3258 178.503
lowerback 11.0721 2.02507 -4.40488
upperback 9.71733 3.00386 0.339679
thorax 3.78883 1.52409 2.60705
lowerneck 2.21625 -11.9501 -16.1672
upperneck -18.0496 -13.856 25.5312
head -2.28778 -7.2601 10.834
rclavicle 2.40032e-014 1.25234e-014
rhumerus -31.5267 36.1607 -109.843
rradius 75.3261
rwrist -34.555
rhand -22.482 30.9467
rfingers 7.12502
rthumb 3.9433 1.00345
lclavicle 2.40032e-014 1.25234e-014
lhumerus -30.5893 -13.8543 94.664
lradius 81.5334
lwrist 23.3753
lhand -15.0092 32.7495
lfingers 7.12502
lthumb 11.1559 62.4329
rfemur -15.2252 -6.06928 18.2154
rtibia 38.0871
rfoot -25.0072 -24.7025
rtoes 2.06729
lfemur -21.1988 -0.600591 -17.7947
ltibia 36.8744
lfoot -15.2701 -0.428319
ltoes -16.5239
21
root -35.3311 15.8137 0.642373 -176.869 74.2489 177.964
lowerback 11.1774 2.09061 -4.56412
upperback 9.7736 3.08559 0.290179
thorax 3.7842 1.56129 2.63481
lowerneck 2.2438 -12.0267 -16.1539
upperneck -18.1239 -13.9382 25.6973
head -2.2786 -7.31321 10.8855
rclavicle 1.4884e-014 -5.1684e-015
rhumerus -31.0102 36.0999 -109.811
rradius 74.8007
rwrist -34.4831
rhand -22.441 30.9197
rfingers 7.12502
rthumb 3.98294 0.977179
lclavicle 1.4884e-014 -5.1684e-015
lhumerus -30.3167 -13.3548 94.6288
lradius 81.0202
lwrist 23.1892
lhand -14.3886 32.5988
lfingers 7.12502
lthumb 11.7544 62.249
rfemur -15.4736 -6.8136 17.9795
rtibia 38.2264
rfoot -24.8358 -24.3789
rtoes 1.34934
lfemur -21.4416 -0.752147 -18.0124
ltibia 37.0289
lfoot -15.3486 -0.365377
ltoes -15.3716
22
root -35.3363 15.807 0.630659 -176.908 74.2055 177.821
lowerback 11.3099 2.15154 -4.69357
upperback 9.83442 3.16061 0.306264
thorax 3.76764 1.5948 2.71369
lowerneck 2.41384 -12.1114 -16.1209
upperneck -18.4358 -14.0074 25.8908
head -2.36234 -7.37217 10.9715
rclavicle -1.82385e-014 -1.39149e-015
rhumerus -30.5213 36.1766 -109.767
rradius 74.2709
rwrist -34.528
rhand -22.2159 30.8466
rfingers 7.12502
rthumb 4.20027 0.908232
lclavicle -1.82385e-014 -1.39149e-015
lhumerus -29.9306 -12.6869 94.6119
lradius 80.4663
lwrist 23.0374
lhand -14.0354 32.9387
lfingers 7.12502
lthumb 12.095 62.5692
rfemur -15.7198 -7.59124 17.8721
rtibia 38.3927
rfoot -24.6093 -23.9163
rtoes 0.722163
lfemur -21.633 -0.961668 -18.0975
ltibia 37.1811
lfoot -15.4573 -0.208903
ltoes -14.8618
23
root -35.3401 15.8019 0.618524 -176.652 74.2148 177.938
lowerback 11.3928 2.22203 -4.66583
upperback 9.89712 3.26334 0.256637
thorax 3.78639 1.6518 2.63587
lowerneck 2.55134 -12.2235 -16.0341
upperneck -18.7404 -14.0975 26.1503
head -2.43069 -7.44612 11.0661
rclavicle 6.09027e-014 -9.14409e-015
rhumerus -29.919 36.085 -109.788
rradius 73.6796
rwrist -34.5261
rhand -22.1771 30.8131
rfingers 7.12502
rthumb 4.2378 0.87549
lclavicle 6.09027e-014 -9.14409e-015
lhumerus -29.3808 -12.0456 94.4423
lradius 79.8249
lwrist 22.8745
lhand -13.7308 33.2655
lfingers 7.12502
lthumb 12.3886 62.8784
rfemur -16.0324 -8.40779 17.8576
rtibia 38.5689
rfoot -24.2929 -23.4393
rtoes 0.196258
lfemur -21.8772 -0.825776 -18.1107
ltibia 37.3465
lfoot -15.5212 -0.374413
ltoes -14.7115
24
root -35.3421 15.797 0.606711 -176.551 74.2274 177.866
lowerback 11.4971 2.30704 -4.65818
upperback 9.90043 3.37579 0.172712
thorax 3.73011 1.71426 2.5292
lowerneck 2.6234 -12.3204 -16.088
upperneck -18.8118 -14.1975 26.5134
head -2.39535 -7.5187 11.1961
rclavicle 9.49197e-015 8.15017e-015
rhumerus -29.363 35.8069 -109.901
rradius 73.027
rwrist -34.4961
rhand -22.1791 30.8258
rfingers 7.12502
rthumb 4.23584 0.888191
lclavicle 9.49197e-015 8.15017e-015
lhumerus -28.9207 -11.3845 94.3294
lradius 79.1166
lwrist 22.7174
lhand -13.3172 33.4021
lfingers 7.12502
lthumb 12.7875 62.9905
rfemur -16.3758 -9.08525 17.8001
rtibia 38.7448
rfoot -23.9668 -23.1764
rtoes -0.384711
lfemur -22.1681 -0.564839 -18.1937
ltibia 37.5422
lfoot -15.5491 -0.635004
ltoes -14.4382
25
root -35.3446 15.7906 0.597624 -176.963 74.1897 177.321
lowerback 11.6291 2.43057 -4.92965
upperback 9.94526 3.51957 0.206084
thorax 3.68444 1.77426 2.69748
lowerneck 2.66276 -12.4244 -16.2842
upperneck -18.813 -14.3483 26.7533
head -2.32508 -7.60043 11.295
rclavicle 4.77083e-015 -1.15295e-014
rhumerus -28.7608 35.7502 -109.754
rradius 72.3724
rwrist -34.8553
rhand -22.1974 30.8364
rfingers 7.12502
rthumb 4.2182 0.898447
lclavicle 4.77083e-015 -1.15295e-014
lhumerus -28.4461 -10.6625 94.4837
lradius 78.4061
lwrist 22.5743
lhand -13.1542 33.7302
lfingers 7.12502
lthumb 12.9445 63.3087
rfemur -16.644 -9.6512 17.5956
rtibia 38.9356
rfoot -23.7497 -22.9274
rtoes -0.892943
lfemur -22.4248 -0.308506 -18.4204
ltibia 37.7496
lfoot -15.5144 -0.939181
ltoes -13.7972
26
root -35.3486 15.7838 0.590123 -177.194 74.1306 176.953
lowerback 11.7197 2.53852 -5.17851
upperback 10.0156 3.64812 0.278732
thorax 3.68753 1.82538 2.89821
lowerneck 2.56978 -12.5342 -16.4144
upperneck -18.5777 -14.5635 26.679
head -2.19391 -7.69252 11.2432
rclavicle -1.91827e-014 1.14301e-014
rhumerus -28.1299 35.7616 -109.532
rradius 71.6851
rwrist -35.3475
rhand -22.1459 30.8487
rfingers 7.12502
rthumb 4.26792 0.911706
lclavicle -1.91827e-014 1.14301e-014
lhumerus -27.9707 -9.84414 94.6572
lradius 77.73
lwrist 22.5612
lhand -13.1711 33.6131
lfingers 7.12502
lthumb 12.9283 63.1926
rfemur -16.9417 -10.1645 17.4595
rtibia 39.1822
rfoot -23.7535 -22.7619
rtoes -1.34293
lfemur -22.734 0.148914 -18.6133
ltibia 37.9523
lfoot -15.4862 -1.39215
ltoes -13.372
27
root -35.3534 15.7773 0.581743 -177.326 74.1132 176.675
lowerback 11.8638 2.64346 -5.30639
upperback 10.0506 3.77655 0.267574
thorax 3.63254 1.88721 2.93934
lowerneck 2.66308 -12.6705 -16.3407
upperneck -18.7057 -14.7474 26.6847
head -2.21252 -7.79715 11.229
rclavicle -2.75814e-014 4.17448e-015
rhumerus -27.5572 35.469 -109.478
rradius 71.0126
rwrist -35.4921
rhand -22.0456 30.8782
rfingers 7.12502
rthumb 4.36475 0.943132
lclavicle -2.75814e-014 4.17448e-015
lhumerus -27.4236 -9.01619 94.6688
lradius 76.9766
lwrist 22.7658
lhand -12.9653 33.1314
lfingers 7.12502
lthumb 13.1267 62.6982
rfemur -17.2997 -10.638 17.3594
rtibia 39.4849
rfoot -23.7087 -22.6416
rtoes -2.06634
lfemur -23.0618 0.564518 -18.7799
ltibia 38.196
lfoot -15.5699 -1.65103
ltoes -14.2357
28
root -35.3608 15.7618 0.572042 -177.853 74.1276 176.039
lowerback 12.1271 2.7916 -5.52161
upperback 10.0469 3.94417 0.228932
thorax 3.46615 1.96835 2.98758
lowerneck 3.08267 -12.808 -16.2693
upperneck -19.3586 -14.8458 27.0189
head -2.41417 -7.89953 11.3994
rclavicle -4.55217e-014 1.2921e-015
rhumerus -27.0012 35.2358 -109.44
rradius 70.3933
rwrist -35.6297
rhand -22.1015 30.681
rfingers 7.12502
rthumb 4.3108 0.744835
lclavicle -4.55217e-014 1.2921e-015
lhumerus -26.7346 -8.25299 94.693
lradius 75.9837
lwrist 22.848
lhand -12.6756 32.6553
lfingers 7.12502
lthumb 13.4059 62.2039
rfemur -17.6668 -11.2108 17.1179
rtibia 39.8604
rfoot -23.5179 -22.2673
rtoes -2.72894
lfemur -23.1972 0.952097 -19.0543
ltibia 38.3974
lfoot -15.6612 -1.92052
ltoes -15.2313
29
root -35.369 15.728 0.561115 -178.392 74.1768 175.404
lowerback 12.2604 2.91497 -5.65654
upperback 10.1134 4.10238 0.13969
thorax 3.45329 2.04747 2.94841
lowerneck 3.48332 -12.9099 -16.2918
upperneck -19.8255 -14.927 27.4039
head -2.54919 -7.99112 11.5921
rclavicle -5.45664e-014 8.64713e-015
rhumerus -26.2395 35.111 -109.385
rradius 69.6557
rwrist -35.8031
rhand -22.0709 30.5871
rfingers 7.12502
rthumb 4.34028 0.651559
lclavicle -5.45664e-014 8.64713e-015
lhumerus -25.9825 -7.4871 94.6822
lradius 74.8962
lwrist 22.626
lhand -12.4336 32.072
lfingers 7.12502
lthumb 13.6391 61.6051
rfemur -18.3181 -12.4335 17.0406
rtibia 40.258
rfoot -22.3868 -22.7349
rtoes -5.88999
lfemur -23.2678 1.37524 -19.3183
ltibia 38.6312
lfoot -15.8359 -2.38261
ltoes -15.088
30
root -35.3752 15.7242 0.554153 -178.664 74.2516 175.067
lowerback 12.4333 3.02453 -5.73903
upperback 10.1924 4.24508 0.087497
thorax 3.4341 2.12101 2.91805
lowerneck 3.56753 -12.9981 -16.4869
upperneck -19.8215 -15.057 27.7152
head -2.47773 -8.07107 11.7199
rclavicle -3.44891e-014 -1.68967e-015
rhumerus -25.532 34.7148 -109.342
rradius 68.7853
rwrist -35.7442
rhand -22.0526 30.5841
rfingers 7.12502
rthumb 4.35802 0.648892
lclavicle -3.44891e-014 -1.68967e-015
lhumerus -25.2952 -6.60652 94.7297
lradius 73.9133
lwrist 22.3841
lhand -12.1091 31.8943
lfingers 7.12502
lthumb 13.9519 61.4062
rfemur -18.7565 -12.7505 16.9017
rtibia 40.6904
rfoot -21.3036 -23.0099
rtoes -8.50816
lfemur -23.3596 1.73767 -19.4511
ltibia 38.8168
lfoot -15.9866 -2.75115
ltoes -14.103
